<svg id="visual" viewBox="0 0 900 600" width="900" height="600" xmlns="http://www.w3.org/2000/svg" xmlns:xlink="http://www.w3.org/1999/xlink" version="1.1"><rect x="0" y="0" width="900" height="600" fill="#140021"></rect><path d="M0 71L39 71L39 72L78 72L78 202L117 202L117 251L157 251L157 135L196 135L196 179L235 179L235 96L274 96L274 136L313 136L313 271L352 271L352 261L391 261L391 113L430 113L430 278L470 278L470 87L509 87L509 170L548 170L548 118L587 118L587 222L626 222L626 261L665 261L665 262L704 262L704 267L743 267L743 161L783 161L783 151L822 151L822 235L861 235L861 252L900 252L900 93L900 601L900 601L861 601L861 601L822 601L822 601L783 601L783 601L743 601L743 601L704 601L704 601L665 601L665 601L626 601L626 601L587 601L587 601L548 601L548 601L509 601L509 601L470 601L470 601L430 601L430 601L391 601L391 601L352 601L352 601L313 601L313 601L274 601L274 601L235 601L235 601L196 601L196 601L157 601L157 601L117 601L117 601L78 601L78 601L39 601L39 601L0 601Z" fill="#fff6e6"></path><path d="M0 170L39 170L39 245L78 245L78 153L117 153L117 141L157 141L157 177L196 177L196 216L235 216L235 142L274 142L274 260L313 260L313 221L352 221L352 208L391 208L391 166L430 166L430 243L470 243L470 196L509 196L509 294L548 294L548 149L587 149L587 266L626 266L626 313L665 313L665 216L704 216L704 258L743 258L743 232L783 232L783 143L822 143L822 192L861 192L861 206L900 206L900 227L900 601L900 601L861 601L861 601L822 601L822 601L783 601L783 601L743 601L743 601L704 601L704 601L665 601L665 601L626 601L626 601L587 601L587 601L548 601L548 601L509 601L509 601L470 601L470 601L430 601L430 601L391 601L391 601L352 601L352 601L313 601L313 601L274 601L274 601L235 601L235 601L196 601L196 601L157 601L157 601L117 601L117 601L78 601L78 601L39 601L39 601L0 601Z" fill="#ecead2"></path><path d="M0 319L39 319L39 223L78 223L78 268L117 268L117 201L157 201L157 240L196 240L196 253L235 253L235 191L274 191L274 192L313 192L313 175L352 175L352 244L391 244L391 289L430 289L430 170L470 170L470 320L509 320L509 179L548 179L548 236L587 236L587 291L626 291L626 193L665 193L665 209L704 209L704 345L743 345L743 194L783 194L783 301L822 301L822 319L861 319L861 334L900 334L900 189L900 601L900 601L861 601L861 601L822 601L822 601L783 601L783 601L743 601L743 601L704 601L704 601L665 601L665 601L626 601L626 601L587 601L587 601L548 601L548 601L509 601L509 601L470 601L470 601L430 601L430 601L391 601L391 601L352 601L352 601L313 601L313 601L274 601L274 601L235 601L235 601L196 601L196 601L157 601L157 601L117 601L117 601L78 601L78 601L39 601L39 601L0 601Z" fill="#d3e0c3"></path><path d="M0 260L39 260L39 325L78 325L78 226L117 226L117 250L157 250L157 221L196 221L196 237L235 237L235 263L274 263L274 377L313 377L313 308L352 308L352 245L391 245L391 266L430 266L430 317L470 317L470 347L509 347L509 281L548 281L548 255L587 255L587 268L626 268L626 229L665 229L665 278L704 278L704 227L743 227L743 331L783 331L783 364L822 364L822 308L861 308L861 322L900 322L900 246L900 601L900 601L861 601L861 601L822 601L822 601L783 601L783 601L743 601L743 601L704 601L704 601L665 601L665 601L626 601L626 601L587 601L587 601L548 601L548 601L509 601L509 601L470 601L470 601L430 601L430 601L391 601L391 601L352 601L352 601L313 601L313 601L274 601L274 601L235 601L235 601L196 601L196 601L157 601L157 601L117 601L117 601L78 601L78 601L39 601L39 601L0 601Z" fill="#b6d6b8"></path><path d="M0 363L39 363L39 367L78 367L78 292L117 292L117 281L157 281L157 352L196 352L196 319L235 319L235 349L274 349L274 351L313 351L313 387L352 387L352 287L391 287L391 351L430 351L430 407L470 407L470 384L509 384L509 407L548 407L548 364L587 364L587 271L626 271L626 272L665 272L665 354L704 354L704 374L743 374L743 331L783 331L783 282L822 282L822 320L861 320L861 392L900 392L900 303L900 601L900 601L861 601L861 601L822 601L822 601L783 601L783 601L743 601L743 601L704 601L704 601L665 601L665 601L626 601L626 601L587 601L587 601L548 601L548 601L509 601L509 601L470 601L470 601L430 601L430 601L391 601L391 601L352 601L352 601L313 601L313 601L274 601L274 601L235 601L235 601L196 601L196 601L157 601L157 601L117 601L117 601L78 601L78 601L39 601L39 601L0 601Z" fill="#96cbb4"></path><path d="M0 331L39 331L39 318L78 318L78 359L117 359L117 357L157 357L157 387L196 387L196 342L235 342L235 336L274 336L274 409L313 409L313 326L352 326L352 416L391 416L391 388L430 388L430 343L470 343L470 421L509 421L509 365L548 365L548 378L587 378L587 362L626 362L626 338L665 338L665 318L704 318L704 363L743 363L743 323L783 323L783 404L822 404L822 430L861 430L861 395L900 395L900 333L900 601L900 601L861 601L861 601L822 601L822 601L783 601L783 601L743 601L743 601L704 601L704 601L665 601L665 601L626 601L626 601L587 601L587 601L548 601L548 601L509 601L509 601L470 601L470 601L430 601L430 601L391 601L391 601L352 601L352 601L313 601L313 601L274 601L274 601L235 601L235 601L196 601L196 601L157 601L157 601L117 601L117 601L78 601L78 601L39 601L39 601L0 601Z" fill="#73c0b5"></path><path d="M0 443L39 443L39 412L78 412L78 464L117 464L117 371L157 371L157 377L196 377L196 368L235 368L235 385L274 385L274 366L313 366L313 459L352 459L352 458L391 458L391 448L430 448L430 410L470 410L470 391L509 391L509 428L548 428L548 379L587 379L587 371L626 371L626 365L665 365L665 431L704 431L704 439L743 439L743 408L783 408L783 456L822 456L822 418L861 418L861 404L900 404L900 431L900 601L900 601L861 601L861 601L822 601L822 601L783 601L783 601L743 601L743 601L704 601L704 601L665 601L665 601L626 601L626 601L587 601L587 601L548 601L548 601L509 601L509 601L470 601L470 601L430 601L430 601L391 601L391 601L352 601L352 601L313 601L313 601L274 601L274 601L235 601L235 601L196 601L196 601L157 601L157 601L117 601L117 601L78 601L78 601L39 601L39 601L0 601Z" fill="#4fb4ba"></path><path d="M0 423L39 423L39 418L78 418L78 503L117 503L117 414L157 414L157 499L196 499L196 475L235 475L235 416L274 416L274 456L313 456L313 473L352 473L352 507L391 507L391 495L430 495L430 496L470 496L470 494L509 494L509 428L548 428L548 445L587 445L587 501L626 501L626 425L665 425L665 432L704 432L704 483L743 483L743 506L783 506L783 444L822 444L822 429L861 429L861 450L900 450L900 483L900 601L900 601L861 601L861 601L822 601L822 601L783 601L783 601L743 601L743 601L704 601L704 601L665 601L665 601L626 601L626 601L587 601L587 601L548 601L548 601L509 601L509 601L470 601L470 601L430 601L430 601L391 601L391 601L352 601L352 601L313 601L313 601L274 601L274 601L235 601L235 601L196 601L196 601L157 601L157 601L117 601L117 601L78 601L78 601L39 601L39 601L0 601Z" fill="#26a7c0"></path><path d="M0 503L39 503L39 527L78 527L78 493L117 493L117 507L157 507L157 534L196 534L196 523L235 523L235 491L274 491L274 495L313 495L313 505L352 505L352 515L391 515L391 496L430 496L430 493L470 493L470 483L509 483L509 480L548 480L548 463L587 463L587 527L626 527L626 475L665 475L665 485L704 485L704 500L743 500L743 510L783 510L783 475L822 475L822 528L861 528L861 487L900 487L900 494L900 601L900 601L861 601L861 601L822 601L822 601L783 601L783 601L743 601L743 601L704 601L704 601L665 601L665 601L626 601L626 601L587 601L587 601L548 601L548 601L509 601L509 601L470 601L470 601L430 601L430 601L391 601L391 601L352 601L352 601L313 601L313 601L274 601L274 601L235 601L235 601L196 601L196 601L157 601L157 601L117 601L117 601L78 601L78 601L39 601L39 601L0 601Z" fill="#0097c4"></path><path d="M0 530L39 530L39 570L78 570L78 536L117 536L117 534L157 534L157 533L196 533L196 521L235 521L235 547L274 547L274 570L313 570L313 575L352 575L352 552L391 552L391 513L430 513L430 519L470 519L470 559L509 559L509 571L548 571L548 542L587 542L587 555L626 555L626 547L665 547L665 548L704 548L704 537L743 537L743 519L783 519L783 559L822 559L822 536L861 536L861 567L900 567L900 555L900 601L900 601L861 601L861 601L822 601L822 601L783 601L783 601L743 601L743 601L704 601L704 601L665 601L665 601L626 601L626 601L587 601L587 601L548 601L548 601L509 601L509 601L470 601L470 601L430 601L430 601L391 601L391 601L352 601L352 601L313 601L313 601L274 601L274 601L235 601L235 601L196 601L196 601L157 601L157 601L117 601L117 601L78 601L78 601L39 601L39 601L0 601Z" fill="#2186c4"></path></svg>