<svg id="visual" viewBox="0 0 900 600" width="900" height="600" xmlns="http://www.w3.org/2000/svg" xmlns:xlink="http://www.w3.org/1999/xlink" version="1.1"><rect x="0" y="0" width="900" height="600" fill="#140021"></rect><path d="M601 0L603 0L603 26L643 26L643 52L637 52L637 78L668 78L668 104L665 104L665 130L670 130L670 157L770 157L770 183L766 183L766 209L603 209L603 235L705 235L705 261L565 261L565 287L739 287L739 313L776 313L776 339L531 339L531 365L570 365L570 391L768 391L768 417L649 417L649 443L669 443L669 470L466 470L466 496L635 496L635 522L763 522L763 548L477 548L477 574L581 574L581 600L0 600L0 574L0 574L0 548L0 548L0 522L0 522L0 496L0 496L0 470L0 470L0 443L0 443L0 417L0 417L0 391L0 391L0 365L0 365L0 339L0 339L0 313L0 313L0 287L0 287L0 261L0 261L0 235L0 235L0 209L0 209L0 183L0 183L0 157L0 157L0 130L0 130L0 104L0 104L0 78L0 78L0 52L0 52L0 26L0 26L0 0L0 0Z" fill="#fff6e6"></path><path d="M411 0L641 0L641 26L510 26L510 52L582 52L582 78L626 78L626 104L531 104L531 130L686 130L686 157L458 157L458 183L583 183L583 209L638 209L638 235L693 235L693 261L458 261L458 287L601 287L601 313L576 313L576 339L528 339L528 365L456 365L456 391L644 391L644 417L406 417L406 443L684 443L684 470L481 470L481 496L470 496L470 522L528 522L528 548L432 548L432 574L501 574L501 600L0 600L0 574L0 574L0 548L0 548L0 522L0 522L0 496L0 496L0 470L0 470L0 443L0 443L0 417L0 417L0 391L0 391L0 365L0 365L0 339L0 339L0 313L0 313L0 287L0 287L0 261L0 261L0 235L0 235L0 209L0 209L0 183L0 183L0 157L0 157L0 130L0 130L0 104L0 104L0 78L0 78L0 52L0 52L0 26L0 26L0 0L0 0Z" fill="#e5e7cd"></path><path d="M514 0L366 0L366 26L599 26L599 52L599 52L599 78L536 78L536 104L581 104L581 130L584 130L584 157L361 157L361 183L479 183L479 209L474 209L474 235L444 235L444 261L502 261L502 287L407 287L407 313L565 313L565 339L586 339L586 365L517 365L517 391L471 391L471 417L521 417L521 443L403 443L403 470L473 470L473 496L476 496L476 522L501 522L501 548L501 548L501 574L508 574L508 600L0 600L0 574L0 574L0 548L0 548L0 522L0 522L0 496L0 496L0 470L0 470L0 443L0 443L0 417L0 417L0 391L0 391L0 365L0 365L0 339L0 339L0 313L0 313L0 287L0 287L0 261L0 261L0 235L0 235L0 209L0 209L0 183L0 183L0 157L0 157L0 130L0 130L0 104L0 104L0 78L0 78L0 52L0 52L0 26L0 26L0 0L0 0Z" fill="#c3dabc"></path><path d="M497 0L465 0L465 26L454 26L454 52L502 52L502 78L367 78L367 104L318 104L318 130L451 130L451 157L291 157L291 183L333 183L333 209L377 209L377 235L283 235L283 261L497 261L497 287L316 287L316 313L398 313L398 339L308 339L308 365L463 365L463 391L486 391L486 417L472 417L472 443L450 443L450 470L483 470L483 496L425 496L425 522L339 522L339 548L482 548L482 574L305 574L305 600L0 600L0 574L0 574L0 548L0 548L0 522L0 522L0 496L0 496L0 470L0 470L0 443L0 443L0 417L0 417L0 391L0 391L0 365L0 365L0 339L0 339L0 313L0 313L0 287L0 287L0 261L0 261L0 235L0 235L0 209L0 209L0 183L0 183L0 157L0 157L0 130L0 130L0 104L0 104L0 78L0 78L0 52L0 52L0 26L0 26L0 0L0 0Z" fill="#9bcdb4"></path><path d="M226 0L396 0L396 26L227 26L227 52L332 52L332 78L423 78L423 104L362 104L362 130L248 130L248 157L384 157L384 183L224 183L224 209L326 209L326 235L422 235L422 261L282 261L282 287L364 287L364 313L287 313L287 339L374 339L374 365L260 365L260 391L427 391L427 417L307 417L307 443L222 443L222 470L237 470L237 496L295 496L295 522L281 522L281 548L392 548L392 574L332 574L332 600L0 600L0 574L0 574L0 548L0 548L0 522L0 522L0 496L0 496L0 470L0 470L0 443L0 443L0 417L0 417L0 391L0 391L0 365L0 365L0 339L0 339L0 313L0 313L0 287L0 287L0 261L0 261L0 235L0 235L0 209L0 209L0 183L0 183L0 157L0 157L0 130L0 130L0 104L0 104L0 78L0 78L0 52L0 52L0 26L0 26L0 0L0 0Z" fill="#6ebfb6"></path><path d="M340 0L209 0L209 26L228 26L228 52L221 52L221 78L228 78L228 104L258 104L258 130L248 130L248 157L185 157L185 183L256 183L256 209L321 209L321 235L336 235L336 261L334 261L334 287L238 287L238 313L317 313L317 339L298 339L298 365L305 365L305 391L214 391L214 417L178 417L178 443L256 443L256 470L221 470L221 496L264 496L264 522L277 522L277 548L305 548L305 574L290 574L290 600L0 600L0 574L0 574L0 548L0 548L0 522L0 522L0 496L0 496L0 470L0 470L0 443L0 443L0 417L0 417L0 391L0 391L0 365L0 365L0 339L0 339L0 313L0 313L0 287L0 287L0 261L0 261L0 235L0 235L0 209L0 209L0 183L0 183L0 157L0 157L0 130L0 130L0 104L0 104L0 78L0 78L0 52L0 52L0 26L0 26L0 0L0 0Z" fill="#3eaebd"></path><path d="M135 0L123 0L123 26L111 26L111 52L171 52L171 78L159 78L159 104L200 104L200 130L240 130L240 157L233 157L233 183L193 183L193 209L158 209L158 235L103 235L103 261L137 261L137 287L153 287L153 313L229 313L229 339L110 339L110 365L155 365L155 391L167 391L167 417L167 417L167 443L153 443L153 470L105 470L105 496L221 496L221 522L207 522L207 548L113 548L113 574L177 574L177 600L0 600L0 574L0 574L0 548L0 548L0 522L0 522L0 496L0 496L0 470L0 470L0 443L0 443L0 417L0 417L0 391L0 391L0 365L0 365L0 339L0 339L0 313L0 313L0 287L0 287L0 261L0 261L0 235L0 235L0 209L0 209L0 183L0 183L0 157L0 157L0 130L0 130L0 104L0 104L0 78L0 78L0 52L0 52L0 26L0 26L0 0L0 0Z" fill="#039cc4"></path><path d="M124 0L84 0L84 26L126 26L126 52L137 52L137 78L92 78L92 104L42 104L42 130L111 130L111 157L138 157L138 183L161 183L161 209L84 209L84 235L108 235L108 261L107 261L107 287L52 287L52 313L102 313L102 339L72 339L72 365L161 365L161 391L84 391L84 417L83 417L83 443L143 443L143 470L160 470L160 496L152 496L152 522L79 522L79 548L42 548L42 574L126 574L126 600L0 600L0 574L0 574L0 548L0 548L0 522L0 522L0 496L0 496L0 470L0 470L0 443L0 443L0 417L0 417L0 391L0 391L0 365L0 365L0 339L0 339L0 313L0 313L0 287L0 287L0 261L0 261L0 235L0 235L0 209L0 209L0 183L0 183L0 157L0 157L0 130L0 130L0 104L0 104L0 78L0 78L0 52L0 52L0 26L0 26L0 0L0 0Z" fill="#2186c4"></path></svg>