<svg id="visual" viewBox="0 0 900 600" width="900" height="600" xmlns="http://www.w3.org/2000/svg" xmlns:xlink="http://www.w3.org/1999/xlink" version="1.1"><path d="M0 13L13.7 16C27.3 19 54.7 25 82 27C109.3 29 136.7 27 163.8 30C191 33 218 41 245.2 42C272.3 43 299.7 37 327 36C354.3 35 381.7 39 409 38C436.3 37 463.7 31 491 30C518.3 29 545.7 33 573 35C600.3 37 627.7 37 654.8 34C682 31 709 25 736.2 22C763.3 19 790.7 19 818 19C845.3 19 872.7 19 886.3 19L900 19L900 0L886.3 0C872.7 0 845.3 0 818 0C790.7 0 763.3 0 736.2 0C709 0 682 0 654.8 0C627.7 0 600.3 0 573 0C545.7 0 518.3 0 491 0C463.7 0 436.3 0 409 0C381.7 0 354.3 0 327 0C299.7 0 272.3 0 245.2 0C218 0 191 0 163.8 0C136.7 0 109.3 0 82 0C54.7 0 27.3 0 13.7 0L0 0Z" fill="#003165"></path><path d="M0 211L13.7 211C27.3 211 54.7 211 82 198C109.3 185 136.7 159 163.8 143C191 127 218 121 245.2 131C272.3 141 299.7 167 327 177C354.3 187 381.7 181 409 184C436.3 187 463.7 199 491 191C518.3 183 545.7 155 573 153C600.3 151 627.7 175 654.8 176C682 177 709 155 736.2 157C763.3 159 790.7 185 818 183C845.3 181 872.7 151 886.3 136L900 121L900 17L886.3 17C872.7 17 845.3 17 818 17C790.7 17 763.3 17 736.2 20C709 23 682 29 654.8 32C627.7 35 600.3 35 573 33C545.7 31 518.3 27 491 28C463.7 29 436.3 35 409 36C381.7 37 354.3 33 327 34C299.7 35 272.3 41 245.2 40C218 39 191 31 163.8 28C136.7 25 109.3 27 82 25C54.7 23 27.3 17 13.7 14L0 11Z" fill="#09477f"></path><path d="M0 241L13.7 239C27.3 237 54.7 233 82 220C109.3 207 136.7 185 163.8 172C191 159 218 155 245.2 164C272.3 173 299.7 195 327 203C354.3 211 381.7 205 409 208C436.3 211 463.7 223 491 215C518.3 207 545.7 179 573 178C600.3 177 627.7 203 654.8 206C682 209 709 189 736.2 194C763.3 199 790.7 229 818 225C845.3 221 872.7 183 886.3 164L900 145L900 119L886.3 134C872.7 149 845.3 179 818 181C790.7 183 763.3 157 736.2 155C709 153 682 175 654.8 174C627.7 173 600.3 149 573 151C545.7 153 518.3 181 491 189C463.7 197 436.3 185 409 182C381.7 179 354.3 185 327 175C299.7 165 272.3 139 245.2 129C218 119 191 125 163.8 141C136.7 157 109.3 183 82 196C54.7 209 27.3 209 13.7 209L0 209Z" fill="#135f99"></path><path d="M0 301L13.7 301C27.3 301 54.7 301 82 299C109.3 297 136.7 293 163.8 297C191 301 218 313 245.2 320C272.3 327 299.7 329 327 324C354.3 319 381.7 307 409 305C436.3 303 463.7 311 491 306C518.3 301 545.7 283 573 283C600.3 283 627.7 301 654.8 303C682 305 709 291 736.2 294C763.3 297 790.7 317 818 314C845.3 311 872.7 285 886.3 272L900 259L900 143L886.3 162C872.7 181 845.3 219 818 223C790.7 227 763.3 197 736.2 192C709 187 682 207 654.8 204C627.7 201 600.3 175 573 176C545.7 177 518.3 205 491 213C463.7 221 436.3 209 409 206C381.7 203 354.3 209 327 201C299.7 193 272.3 171 245.2 162C218 153 191 157 163.8 170C136.7 183 109.3 205 82 218C54.7 231 27.3 235 13.7 237L0 239Z" fill="#1c77b4"></path><path d="M0 367L13.7 362C27.3 357 54.7 347 82 340C109.3 333 136.7 329 163.8 338C191 347 218 369 245.2 377C272.3 385 299.7 379 327 373C354.3 367 381.7 361 409 356C436.3 351 463.7 347 491 342C518.3 337 545.7 331 573 336C600.3 341 627.7 357 654.8 361C682 365 709 357 736.2 356C763.3 355 790.7 361 818 352C845.3 343 872.7 319 886.3 307L900 295L900 257L886.3 270C872.7 283 845.3 309 818 312C790.7 315 763.3 295 736.2 292C709 289 682 303 654.8 301C627.7 299 600.3 281 573 281C545.7 281 518.3 299 491 304C463.7 309 436.3 301 409 303C381.7 305 354.3 317 327 322C299.7 327 272.3 325 245.2 318C218 311 191 299 163.8 295C136.7 291 109.3 295 82 297C54.7 299 27.3 299 13.7 299L0 299Z" fill="#2186c4"></path><path d="M0 409L13.7 403C27.3 397 54.7 385 82 387C109.3 389 136.7 405 163.8 413C191 421 218 421 245.2 421C272.3 421 299.7 421 327 417C354.3 413 381.7 405 409 401C436.3 397 463.7 397 491 397C518.3 397 545.7 397 573 400C600.3 403 627.7 409 654.8 410C682 411 709 407 736.2 414C763.3 421 790.7 439 818 437C845.3 435 872.7 413 886.3 402L900 391L900 293L886.3 305C872.7 317 845.3 341 818 350C790.7 359 763.3 353 736.2 354C709 355 682 363 654.8 359C627.7 355 600.3 339 573 334C545.7 329 518.3 335 491 340C463.7 345 436.3 349 409 354C381.7 359 354.3 365 327 371C299.7 377 272.3 383 245.2 375C218 367 191 345 163.8 336C136.7 327 109.3 331 82 338C54.7 345 27.3 355 13.7 360L0 365Z" fill="#2186c4"></path><path d="M0 445L13.7 436C27.3 427 54.7 409 82 410C109.3 411 136.7 431 163.8 438C191 445 218 439 245.2 438C272.3 437 299.7 441 327 442C354.3 443 381.7 441 409 438C436.3 435 463.7 431 491 427C518.3 423 545.7 419 573 424C600.3 429 627.7 443 654.8 446C682 449 709 441 736.2 445C763.3 449 790.7 465 818 463C845.3 461 872.7 441 886.3 431L900 421L900 389L886.3 400C872.7 411 845.3 433 818 435C790.7 437 763.3 419 736.2 412C709 405 682 409 654.8 408C627.7 407 600.3 401 573 398C545.7 395 518.3 395 491 395C463.7 395 436.3 395 409 399C381.7 403 354.3 411 327 415C299.7 419 272.3 419 245.2 419C218 419 191 419 163.8 411C136.7 403 109.3 387 82 385C54.7 383 27.3 395 13.7 401L0 407Z" fill="#1c77b4"></path><path d="M0 499L13.7 484C27.3 469 54.7 439 82 437C109.3 435 136.7 461 163.8 473C191 485 218 483 245.2 481C272.3 479 299.7 477 327 475C354.3 473 381.7 471 409 468C436.3 465 463.7 461 491 461C518.3 461 545.7 465 573 474C600.3 483 627.7 497 654.8 496C682 495 709 479 736.2 477C763.3 475 790.7 487 818 485C845.3 483 872.7 467 886.3 459L900 451L900 419L886.3 429C872.7 439 845.3 459 818 461C790.7 463 763.3 447 736.2 443C709 439 682 447 654.8 444C627.7 441 600.3 427 573 422C545.7 417 518.3 421 491 425C463.7 429 436.3 433 409 436C381.7 439 354.3 441 327 440C299.7 439 272.3 435 245.2 436C218 437 191 443 163.8 436C136.7 429 109.3 409 82 408C54.7 407 27.3 425 13.7 434L0 443Z" fill="#135f99"></path><path d="M0 547L13.7 546C27.3 545 54.7 543 82 546C109.3 549 136.7 557 163.8 559C191 561 218 557 245.2 557C272.3 557 299.7 561 327 565C354.3 569 381.7 573 409 572C436.3 571 463.7 565 491 565C518.3 565 545.7 571 573 575C600.3 579 627.7 581 654.8 576C682 571 709 559 736.2 552C763.3 545 790.7 543 818 544C845.3 545 872.7 549 886.3 551L900 553L900 449L886.3 457C872.7 465 845.3 481 818 483C790.7 485 763.3 473 736.2 475C709 477 682 493 654.8 494C627.7 495 600.3 481 573 472C545.7 463 518.3 459 491 459C463.7 459 436.3 463 409 466C381.7 469 354.3 471 327 473C299.7 475 272.3 477 245.2 479C218 481 191 483 163.8 471C136.7 459 109.3 433 82 435C54.7 437 27.3 467 13.7 482L0 497Z" fill="#09477f"></path><path d="M0 601L13.7 601C27.3 601 54.7 601 82 601C109.3 601 136.7 601 163.8 601C191 601 218 601 245.2 601C272.3 601 299.7 601 327 601C354.3 601 381.7 601 409 601C436.3 601 463.7 601 491 601C518.3 601 545.7 601 573 601C600.3 601 627.7 601 654.8 601C682 601 709 601 736.2 601C763.3 601 790.7 601 818 601C845.3 601 872.7 601 886.3 601L900 601L900 551L886.3 549C872.7 547 845.3 543 818 542C790.7 541 763.3 543 736.2 550C709 557 682 569 654.8 574C627.7 579 600.3 577 573 573C545.7 569 518.3 563 491 563C463.7 563 436.3 569 409 570C381.7 571 354.3 567 327 563C299.7 559 272.3 555 245.2 555C218 555 191 559 163.8 557C136.7 555 109.3 547 82 544C54.7 541 27.3 543 13.7 544L0 545Z" fill="#003165"></path></svg>