<svg id="visual" viewBox="0 0 900 600" width="900" height="600" xmlns="http://www.w3.org/2000/svg" xmlns:xlink="http://www.w3.org/1999/xlink" version="1.1"><path d="M0 31L50 31L50 19L100 19L100 25L150 25L150 31L200 31L200 19L250 19L250 19L300 19L300 25L350 25L350 31L400 31L400 31L450 31L450 19L500 19L500 37L550 37L550 13L600 13L600 25L650 25L650 25L700 25L700 37L750 37L750 37L800 37L800 37L850 37L850 13L900 13L900 19L900 0L900 0L850 0L850 0L800 0L800 0L750 0L750 0L700 0L700 0L650 0L650 0L600 0L600 0L550 0L550 0L500 0L500 0L450 0L450 0L400 0L400 0L350 0L350 0L300 0L300 0L250 0L250 0L200 0L200 0L150 0L150 0L100 0L100 0L50 0L50 0L0 0Z" fill="#2186c4"></path><path d="M0 73L50 73L50 37L100 37L100 61L150 61L150 79L200 79L200 43L250 43L250 49L300 49L300 49L350 49L350 43L400 43L400 67L450 67L450 55L500 55L500 61L550 61L550 43L600 43L600 43L650 43L650 55L700 55L700 61L750 61L750 49L800 49L800 79L850 79L850 49L900 49L900 49L900 17L900 11L850 11L850 35L800 35L800 35L750 35L750 35L700 35L700 23L650 23L650 23L600 23L600 11L550 11L550 35L500 35L500 17L450 17L450 29L400 29L400 29L350 29L350 23L300 23L300 17L250 17L250 17L200 17L200 29L150 29L150 23L100 23L100 17L50 17L50 29L0 29Z" fill="#0094c5"></path><path d="M0 181L50 181L50 133L100 133L100 169L150 169L150 253L200 253L200 109L250 109L250 181L300 181L300 187L350 187L350 199L400 199L400 127L450 127L450 133L500 133L500 127L550 127L550 103L600 103L600 133L650 133L650 169L700 169L700 187L750 187L750 157L800 157L800 169L850 169L850 127L900 127L900 103L900 47L900 47L850 47L850 77L800 77L800 47L750 47L750 59L700 59L700 53L650 53L650 41L600 41L600 41L550 41L550 59L500 59L500 53L450 53L450 65L400 65L400 41L350 41L350 47L300 47L300 47L250 47L250 41L200 41L200 77L150 77L150 59L100 59L100 35L50 35L50 71L0 71Z" fill="#15a1c2"></path><path d="M0 199L50 199L50 151L100 151L100 193L150 193L150 265L200 265L200 121L250 121L250 211L300 211L300 211L350 211L350 229L400 229L400 151L450 151L450 157L500 157L500 139L550 139L550 133L600 133L600 151L650 151L650 193L700 193L700 211L750 211L750 175L800 175L800 199L850 199L850 157L900 157L900 121L900 101L900 125L850 125L850 167L800 167L800 155L750 155L750 185L700 185L700 167L650 167L650 131L600 131L600 101L550 101L550 125L500 125L500 131L450 131L450 125L400 125L400 197L350 197L350 185L300 185L300 179L250 179L250 107L200 107L200 251L150 251L150 167L100 167L100 131L50 131L50 179L0 179Z" fill="#39adbd"></path><path d="M0 259L50 259L50 187L100 187L100 247L150 247L150 307L200 307L200 181L250 181L250 247L300 247L300 241L350 241L350 265L400 265L400 205L450 205L450 199L500 199L500 187L550 187L550 169L600 169L600 187L650 187L650 223L700 223L700 235L750 235L750 193L800 193L800 247L850 247L850 181L900 181L900 175L900 119L900 155L850 155L850 197L800 197L800 173L750 173L750 209L700 209L700 191L650 191L650 149L600 149L600 131L550 131L550 137L500 137L500 155L450 155L450 149L400 149L400 227L350 227L350 209L300 209L300 209L250 209L250 119L200 119L200 263L150 263L150 191L100 191L100 149L50 149L50 197L0 197Z" fill="#59b8b9"></path><path d="M0 313L50 313L50 307L100 307L100 319L150 319L150 361L200 361L200 265L250 265L250 337L300 337L300 271L350 271L350 295L400 295L400 277L450 277L450 253L500 253L500 241L550 241L550 223L600 223L600 283L650 283L650 325L700 325L700 355L750 355L750 253L800 253L800 325L850 325L850 217L900 217L900 235L900 173L900 179L850 179L850 245L800 245L800 191L750 191L750 233L700 233L700 221L650 221L650 185L600 185L600 167L550 167L550 185L500 185L500 197L450 197L450 203L400 203L400 263L350 263L350 239L300 239L300 245L250 245L250 179L200 179L200 305L150 305L150 245L100 245L100 185L50 185L50 257L0 257Z" fill="#77c1b5"></path><path d="M0 343L50 343L50 325L100 325L100 349L150 349L150 385L200 385L200 277L250 277L250 361L300 361L300 283L350 283L350 325L400 325L400 307L450 307L450 283L500 283L500 253L550 253L550 247L600 247L600 319L650 319L650 337L700 337L700 391L750 391L750 277L800 277L800 361L850 361L850 229L900 229L900 271L900 233L900 215L850 215L850 323L800 323L800 251L750 251L750 353L700 353L700 323L650 323L650 281L600 281L600 221L550 221L550 239L500 239L500 251L450 251L450 275L400 275L400 293L350 293L350 269L300 269L300 335L250 335L250 263L200 263L200 359L150 359L150 317L100 317L100 305L50 305L50 311L0 311Z" fill="#93cab4"></path><path d="M0 367L50 367L50 343L100 343L100 373L150 373L150 415L200 415L200 307L250 307L250 385L300 385L300 331L350 331L350 355L400 355L400 337L450 337L450 307L500 307L500 307L550 307L550 265L600 265L600 361L650 361L650 391L700 391L700 409L750 409L750 307L800 307L800 385L850 385L850 283L900 283L900 301L900 269L900 227L850 227L850 359L800 359L800 275L750 275L750 389L700 389L700 335L650 335L650 317L600 317L600 245L550 245L550 251L500 251L500 281L450 281L450 305L400 305L400 323L350 323L350 281L300 281L300 359L250 359L250 275L200 275L200 383L150 383L150 347L100 347L100 323L50 323L50 341L0 341Z" fill="#aed3b7"></path><path d="M0 433L50 433L50 367L100 367L100 409L150 409L150 451L200 451L200 355L250 355L250 433L300 433L300 379L350 379L350 421L400 421L400 361L450 361L450 373L500 373L500 343L550 343L550 319L600 319L600 415L650 415L650 421L700 421L700 433L750 433L750 355L800 355L800 415L850 415L850 337L900 337L900 361L900 299L900 281L850 281L850 383L800 383L800 305L750 305L750 407L700 407L700 389L650 389L650 359L600 359L600 263L550 263L550 305L500 305L500 305L450 305L450 335L400 335L400 353L350 353L350 329L300 329L300 383L250 383L250 305L200 305L200 413L150 413L150 371L100 371L100 341L50 341L50 365L0 365Z" fill="#c6dbbd"></path><path d="M0 445L50 445L50 397L100 397L100 427L150 427L150 475L200 475L200 385L250 385L250 463L300 463L300 403L350 403L350 457L400 457L400 397L450 397L450 391L500 391L500 367L550 367L550 349L600 349L600 427L650 427L650 433L700 433L700 457L750 457L750 379L800 379L800 433L850 433L850 355L900 355L900 385L900 359L900 335L850 335L850 413L800 413L800 353L750 353L750 431L700 431L700 419L650 419L650 413L600 413L600 317L550 317L550 341L500 341L500 371L450 371L450 359L400 359L400 419L350 419L350 377L300 377L300 431L250 431L250 353L200 353L200 449L150 449L150 407L100 407L100 365L50 365L50 431L0 431Z" fill="#dce3c8"></path><path d="M0 499L50 499L50 469L100 469L100 475L150 475L150 523L200 523L200 427L250 427L250 523L300 523L300 487L350 487L350 505L400 505L400 451L450 451L450 457L500 457L500 445L550 445L550 415L600 415L600 481L650 481L650 475L700 475L700 505L750 505L750 463L800 463L800 505L850 505L850 421L900 421L900 445L900 383L900 353L850 353L850 431L800 431L800 377L750 377L750 455L700 455L700 431L650 431L650 425L600 425L600 347L550 347L550 365L500 365L500 389L450 389L450 395L400 395L400 455L350 455L350 401L300 401L300 461L250 461L250 383L200 383L200 473L150 473L150 425L100 425L100 395L50 395L50 443L0 443Z" fill="#efecd6"></path><path d="M0 601L50 601L50 601L100 601L100 601L150 601L150 601L200 601L200 601L250 601L250 601L300 601L300 601L350 601L350 601L400 601L400 601L450 601L450 601L500 601L500 601L550 601L550 601L600 601L600 601L650 601L650 601L700 601L700 601L750 601L750 601L800 601L800 601L850 601L850 601L900 601L900 601L900 443L900 419L850 419L850 503L800 503L800 461L750 461L750 503L700 503L700 473L650 473L650 479L600 479L600 413L550 413L550 443L500 443L500 455L450 455L450 449L400 449L400 503L350 503L350 485L300 485L300 521L250 521L250 425L200 425L200 521L150 521L150 473L100 473L100 467L50 467L50 497L0 497Z" fill="#fff6e6"></path></svg>